<svg width="29" height="24" viewBox="0 0 29 24" fill="none" xmlns="http://www.w3.org/2000/svg">
<path d="M25.9853 7.67999H3.01477C2.63107 7.67999 2.32007 7.8519 2.32007 8.064V11.136C2.32007 11.348 2.63098 11.52 3.01477 11.52H25.9854C26.3691 11.52 26.6801 11.3481 26.6801 11.136V8.064C26.68 7.8519 26.3691 7.67999 25.9853 7.67999Z" fill="#303030"/>
<path d="M26.2331 12.48H7.40681C7.16 12.48 6.95996 12.6519 6.95996 12.864V15.936C6.95996 16.1481 7.15995 16.32 7.40681 16.32H26.2331C26.4799 16.32 26.68 16.1481 26.68 15.936V12.864C26.68 12.652 26.48 12.48 26.2331 12.48Z" fill="#303030"/>
<path d="M26.2128 17.76H2.78735C2.52926 17.76 2.32007 17.9319 2.32007 18.144V21.216C2.32007 21.4281 2.5292 21.6 2.78735 21.6H26.2128C26.4709 21.6 26.6801 21.4281 26.6801 21.216V18.144C26.6801 17.9319 26.4709 17.76 26.2128 17.76Z" fill="#303030"/>
<path d="M0.399597 6.23999C0.178889 6.23999 0 6.40964 0 6.61895V23.6211C0 23.8303 0.178839 24 0.399597 24H12.76V6.23999H0.399597Z" fill="#CDD4D5"/>
<path d="M2.76898 7.67999C2.52103 7.67999 2.32007 7.8519 2.32007 8.064V11.136C2.32007 11.348 2.52098 11.52 2.76898 11.52H14.5001V7.68004H2.76898V7.67999Z" fill="black"/>
<path d="M8.52627 12.48C8.30194 12.48 8.12012 12.6519 8.12012 12.864V15.936C8.12012 16.1481 8.30189 16.32 8.52627 16.32H19.1401V12.4801H8.52627V12.48Z" fill="black"/>
<path d="M2.76898 17.76C2.52103 17.76 2.32007 17.9319 2.32007 18.144V21.216C2.32007 21.4281 2.52098 21.6 2.76898 21.6H14.5001V17.7601H2.76898V17.76Z" fill="black"/>
<path d="M14.6223 24C14.3715 24 14.1682 23.8318 14.1682 23.6242V5.58664C14.1682 5.37913 14.3714 5.21085 14.6223 5.21085C14.8731 5.21085 15.0764 5.37908 15.0764 5.58664V23.6242C15.0764 23.8318 14.8731 24 14.6223 24Z" fill="#101415" fill-opacity="0.42"/>
<path d="M17.5284 0H11.4741C11.2233 0 11.02 0.168234 11.02 0.375797V3.91917C11.02 4.04733 11.0989 4.16658 11.2293 4.23567L14.3775 5.90316C14.4522 5.94272 14.5373 5.96245 14.6223 5.96245C14.7129 5.96245 14.8033 5.94005 14.881 5.89552L17.787 4.22803C17.9094 4.15777 17.9824 4.04245 17.9824 3.91917V0.375797C17.9825 0.168234 17.7792 0 17.5284 0Z" fill="#303030"/>
<path d="M11.3518 0C11.101 0 10.8977 0.168234 10.8977 0.375797V3.91917C10.8977 4.04733 10.9766 4.16658 11.107 4.23567L14.2552 5.90316C14.3299 5.94272 14.415 5.96245 14.5 5.96245V0H11.3518Z" fill="black"/>
</svg>
